<svg width="116" height="28" viewBox="0 0 116 28" fill="none" xmlns="http://www.w3.org/2000/svg">
<path d="M23.61 4.72698C23.3773 2.35014 21.615 0.612849 19.2046 0.384203C17.5287 0.22482 15.221 0.0966568 12.1329 0.0966568C9.0449 0.0966568 6.83915 0.22204 5.17384 0.375861C2.69947 0.605266 0.890009 2.40423 0.653843 4.84275C0.492949 6.49751 0.364258 8.74681 0.364258 11.6961C0.364258 14.6454 0.493588 16.8967 0.653843 18.5536C0.890776 20.9921 2.6987 22.7911 5.17308 23.0204C6.83915 23.1771 9.11173 23.2997 12.1323 23.2997C15.1528 23.2997 17.5287 23.1715 19.2039 23.0122C21.6142 22.7834 23.3765 21.0455 23.6092 18.6694C23.7709 17.0173 23.901 14.7431 23.901 11.6981C23.901 8.65328 23.7717 6.37832 23.61 4.72698ZM18.449 15.8323C18.0988 15.9169 17.7347 15.9432 17.3741 15.9412C17.1843 15.9412 17.0528 15.9356 16.8068 15.9107C15.8178 15.8116 15.1395 15.4859 14.6981 15.1269C14.6537 15.0909 14.5652 15.0618 14.471 15.1311C14.3929 15.2018 14.3929 15.2925 14.4491 15.4276C14.4772 15.4859 14.6284 15.7257 14.6284 15.7257C14.6284 15.7257 14.762 15.9613 14.8168 16.0458C15.2471 16.6237 15.6259 17.0465 15.9584 17.3659C16.2437 17.6486 16.3421 18.0955 16.1706 18.4955C16.1194 18.6208 16.0421 18.7261 15.9465 18.8224C15.5429 19.2299 14.8724 19.2174 14.4786 18.8439C14.0605 18.442 13.64 17.9958 13.1227 17.2515C12.7094 16.6868 12.4014 16.0534 12.2138 15.382C12.1998 15.3327 12.1723 15.3036 12.1329 15.3036C12.0936 15.3036 12.0669 15.3327 12.0522 15.382C11.8645 16.0534 11.5566 16.6861 11.1432 17.2515C10.6259 17.9958 10.2055 18.442 9.78726 18.8439C9.39365 19.2174 8.72362 19.2299 8.31953 18.8224C8.22394 18.7261 8.14662 18.6208 8.09525 18.4955C7.92298 18.0949 8.02215 17.6479 8.30752 17.3659C8.64004 17.0465 9.01959 16.6237 9.44911 16.0458C9.50394 15.9613 9.63749 15.7257 9.63749 15.7257C9.63749 15.7257 9.78867 15.4859 9.81678 15.4276C9.87301 15.2925 9.87301 15.2011 9.79493 15.1311C9.7001 15.0611 9.61218 15.0909 9.56796 15.1269C9.1272 15.4859 8.44809 15.8122 7.45908 15.9107C7.21308 15.935 7.08094 15.9412 6.8918 15.9412C6.53116 15.9432 6.16707 15.9169 5.81768 15.8323C5.261 15.6847 4.93627 15.1041 5.08669 14.5559C5.23352 14.0202 5.78471 13.6953 6.33295 13.8228C6.60502 13.872 7.02189 13.8887 7.32413 13.8367C8.29205 13.7243 9.04145 13.1367 9.12439 12.0744C9.14752 11.4653 8.90713 11.0821 8.58241 10.6373C8.1571 10.0191 7.6932 9.24721 7.6932 8.25767C7.6932 5.90231 9.83429 4.0514 12.1344 4.0514C14.4344 4.0514 16.5756 5.90231 16.5756 8.25767C16.5756 9.24721 16.1116 10.0185 15.6863 10.6373C15.3616 11.0821 15.1212 11.4653 15.1443 12.0744C15.2266 13.1367 15.976 13.7243 16.9446 13.8367C17.2462 13.8879 17.6637 13.8713 17.9358 13.8228C18.4841 13.696 19.0358 14.0202 19.1821 14.5559C19.3318 15.1048 19.0071 15.6847 18.451 15.8323" fill="#202737"/>
<path d="M10.8233 7.88822C10.3607 7.88822 9.99314 8.2042 9.99314 8.88673C9.99314 9.56926 10.3671 9.74115 10.8296 9.74115C11.2922 9.74115 11.6661 9.56926 11.6661 8.88673C11.6661 8.2042 11.2859 7.88822 10.8233 7.88822Z" fill="#202737"/>
<path d="M13.4307 7.88822C12.9682 7.88822 12.6006 8.2042 12.6006 8.88673C12.6006 9.56926 12.9745 9.74115 13.4371 9.74115C13.8996 9.74115 14.2735 9.56926 14.2735 8.88673C14.2735 8.2042 13.8932 7.88822 13.4307 7.88822Z" fill="#202737"/>
<path d="M79.9347 4.60311V8.62648C77.4583 6.73335 74.6972 7.08119 72.9447 9.06305C71.2225 11.0033 71.1135 14.0177 72.6923 16.1313C73.3735 17.0438 74.2684 17.6772 75.379 17.9544C77.0394 18.366 78.5845 18.0341 79.9319 16.8422L80.0135 18.1436H82.6404V4.60311H79.9347ZM77.0963 15.6052C75.5323 15.6052 74.2642 14.3281 74.2642 12.7524C74.2642 11.1766 75.5323 9.8994 77.0963 9.8994C78.6604 9.8994 79.9285 11.1766 79.9285 12.7524C79.9285 14.3281 78.6604 15.6052 77.0963 15.6052Z" fill="#202737"/>
<path d="M108.647 12.0981H108.865L112.224 7.86761H115.416L111.217 12.9858L115.484 18.1442H112.403L108.647 13.6407V18.1442H106.023V4.60311H108.647V12.0981Z" fill="#202737"/>
<path d="M33.7195 7.39819C30.6779 7.38706 28.278 9.71056 28.2577 12.682C28.2372 15.7337 30.5753 18.1016 33.633 18.1251C36.7098 18.148 39.1125 15.8231 39.1315 12.8039C39.1519 9.77705 36.7787 7.40994 33.7195 7.39819ZM33.6914 15.5411C32.1498 15.5411 30.9 14.2965 30.9 12.7617C30.9 11.2268 32.1498 9.98219 33.6914 9.98219C35.233 9.98219 36.4829 11.2268 36.4829 12.7617C36.4829 14.2965 35.233 15.5411 33.6914 15.5411Z" fill="#202737"/>
<path d="M48.3018 14.2907C47.8026 15.0439 46.9451 15.5415 45.9708 15.5415C44.4292 15.5415 43.1793 14.2969 43.1793 12.762C43.1793 11.2272 44.4292 9.98257 45.9708 9.98257C47.0083 9.98257 47.9136 10.5467 48.3945 11.3838L50.6607 10.0054C49.7076 8.43247 47.9643 7.3791 45.9708 7.3791C42.955 7.3791 40.5103 9.78918 40.5103 12.762C40.5103 15.7348 42.955 18.1442 45.9708 18.1442C47.9004 18.1442 49.5944 17.1568 50.5659 15.6676L48.3018 14.2907Z" fill="#202737"/>
<path d="M98.331 14.4428C98.8013 15.4544 99.6365 15.846 100.696 15.7447C101.202 15.697 101.793 15.4392 101.793 14.9319C101.793 14.4607 101.281 14.2535 100.943 14.1087C100.02 13.7145 99.0073 13.5155 98.1005 13.0901C96.2546 12.2245 95.9046 9.91634 97.3414 8.48606C99.2091 6.62478 102.941 7.16107 104.271 9.55877C103.532 9.95792 102.841 10.3314 102.114 10.7256C101.952 10.5511 101.819 10.3909 101.669 10.2496C101.132 9.74305 100.526 9.59062 99.9085 9.81648C99.5479 9.95097 99.2611 10.2005 99.2611 10.5302C99.2611 10.8193 99.4825 11.0416 99.6949 11.1449C100.187 11.3826 100.734 11.5066 101.253 11.691C101.841 11.8988 102.457 12.0604 103.001 12.3507C104.452 13.1261 104.904 14.8599 104.22 16.2119C103.969 16.708 103.563 17.1092 103.082 17.3982C101.678 18.2429 100.032 18.3157 98.7085 17.9019C97.7406 17.5992 96.9119 16.9561 96.3888 16.0975C96.2827 15.9236 96.2103 15.769 96.1667 15.6325L98.331 14.4428Z" fill="#202737"/>
<path d="M58.6596 18.1448C57.7184 18.0894 56.8053 18.0935 55.9195 17.9473C54.7554 17.7533 53.9963 16.9966 53.8901 15.8337C53.7608 14.4181 53.7869 12.9926 53.7496 11.5672C53.7405 11.2166 53.7405 10.8098 53.7405 10.3393H51.9262C51.9262 10.3393 51.9437 8.26525 51.9437 7.86825H53.7405V5.95982L56.4531 4.99936V7.86825H58.661V10.3379C58.661 10.3379 57.071 10.3393 56.4496 10.3393C56.4496 11.8845 56.4061 13.2573 56.4763 14.7188C56.5129 15.2219 56.9326 15.6113 57.4344 15.628L58.659 15.6869L58.6596 18.1448Z" fill="#202737"/>
<path d="M61.6372 12.5275C61.1171 12.8664 60.734 13.2863 60.483 13.7887C60.2046 14.3458 60.1266 15.282 60.3432 15.8655C60.7129 16.8633 61.631 17.6284 62.7591 17.9257C63.2365 18.0545 63.7285 18.1225 64.2234 18.1266C65.4297 18.1266 66.4643 17.7191 67.3958 16.9188V18.1446H70.1112L70.0965 11.2622C70.0199 9.06267 68.6575 7.6324 66.4482 7.41829C65.4409 7.30466 64.4349 7.35382 63.4326 7.60472C61.7744 8.00172 60.6643 8.90468 60.6643 8.90468L62.0906 10.5311L62.2256 10.4549C64.2437 9.37449 65.4191 9.20954 66.4988 9.74318C67.2144 10.1485 67.3951 10.5407 67.3951 11.382C67.3101 11.382 67.2158 11.3869 67.1314 11.3882C67.1314 11.3882 65.1928 11.4063 62.8597 12.005C62.4274 12.1158 62.0098 12.2842 61.6372 12.5275ZM62.9947 14.9181C62.9947 14.3659 63.3517 14.0312 63.7243 13.8316C64.4827 13.4582 65.5323 13.3043 66.4938 13.3043C66.7751 13.3043 67.0675 13.3112 67.3593 13.3189H67.3986C67.4752 14.456 67.1806 15.1732 66.4482 15.6388C65.5295 16.221 64.397 16.3631 63.6744 15.9701C63.1367 15.6963 62.987 15.2626 62.9947 14.9181Z" fill="#202737"/>
<path d="M91.6812 14.4115C91.1736 15.1336 90.3525 15.6034 89.424 15.6034C88.2514 15.6034 87.2491 14.8544 86.8357 13.7935H91.7802L94.7713 13.7712C94.8289 13.4574 94.8619 13.1331 94.8641 12.7998C94.8845 9.77288 92.5114 7.40577 89.4521 7.39402C86.4104 7.38289 84.0107 9.70639 83.9902 12.6778C83.9699 15.7296 86.3078 18.0974 89.3657 18.121C91.3114 18.1355 92.9865 17.2104 93.9601 15.7656L91.6812 14.4115ZM89.424 9.81939C90.638 9.81939 91.6706 10.6231 92.0551 11.745H86.7935C87.1774 10.6231 88.2093 9.81939 89.424 9.81939Z" fill="#202737"/>
<path d="M32.0449 23.2489V25.9101H31.598V25.5168C31.5129 25.6528 31.3934 25.7596 31.2395 25.8373C31.089 25.9118 30.9221 25.949 30.7387 25.949C30.5292 25.949 30.341 25.907 30.1741 25.8228C30.0071 25.7353 29.8745 25.6059 29.7763 25.4342C29.6813 25.2626 29.6339 25.0538 29.6339 24.8077V23.2489H30.0758V24.7494C30.0758 25.0117 30.1429 25.2141 30.2771 25.3565C30.4114 25.4958 30.5947 25.5653 30.8271 25.5653C31.0661 25.5653 31.2544 25.4925 31.3917 25.3468C31.5292 25.2012 31.598 24.9891 31.598 24.7106V23.2489H32.0449ZM36.0352 23.2002C36.2448 23.2002 36.4314 23.244 36.5949 23.3314C36.7586 23.4156 36.888 23.5435 36.9829 23.715C37.0779 23.8867 37.1253 24.0955 37.1253 24.3416V25.9101H36.6834V24.4046C36.6834 24.1392 36.6163 23.9368 36.4821 23.7976C36.3511 23.6551 36.1727 23.584 35.9469 23.584C35.7144 23.584 35.5295 23.6584 35.392 23.8073C35.2545 23.953 35.1857 24.1651 35.1857 24.4436V25.9101H34.7438V24.4046C34.7438 24.1392 34.6767 23.9368 34.5425 23.7976C34.4115 23.6551 34.2331 23.584 34.0072 23.584C33.7749 23.584 33.5899 23.6584 33.4524 23.8073C33.3149 23.953 33.2462 24.1651 33.2462 24.4436V25.9101H32.7993V23.2489H33.2462V23.6325C33.3346 23.4933 33.4524 23.3864 33.5997 23.312C33.7503 23.2375 33.9156 23.2002 34.0956 23.2002C34.3216 23.2002 34.5212 23.2504 34.6947 23.3509C34.8682 23.4512 34.9975 23.5985 35.0826 23.7928C35.1579 23.6049 35.2823 23.4593 35.4558 23.3557C35.6293 23.252 35.8224 23.2002 36.0352 23.2002ZM37.6913 24.5698C37.6913 24.2978 37.747 24.0598 37.8583 23.856C37.9696 23.6487 38.1218 23.4884 38.3149 23.3752C38.5114 23.2618 38.729 23.2052 38.968 23.2052C39.2037 23.2052 39.4083 23.2553 39.5818 23.3557C39.7553 23.456 39.8846 23.5823 39.9698 23.7345V23.2489H40.4215V25.9101H39.9698V25.4148C39.8813 25.5702 39.7488 25.6997 39.5719 25.8033C39.3985 25.9037 39.1956 25.9538 38.9631 25.9538C38.7241 25.9538 38.508 25.8956 38.3149 25.779C38.1218 25.6625 37.9696 25.499 37.8583 25.2885C37.747 25.0781 37.6913 24.8385 37.6913 24.5698ZM39.9698 24.5746C39.9698 24.3739 39.9287 24.1991 39.8469 24.0501C39.7652 23.9012 39.6538 23.788 39.513 23.7102C39.3755 23.6292 39.2233 23.5888 39.0564 23.5888C38.8895 23.5888 38.7372 23.6277 38.5998 23.7053C38.4623 23.783 38.3526 23.8964 38.2707 24.0453C38.1889 24.1942 38.148 24.3691 38.148 24.5698C38.148 24.7737 38.1889 24.9518 38.2707 25.104C38.3526 25.253 38.4623 25.3679 38.5998 25.4488C38.7372 25.5265 38.8895 25.5653 39.0564 25.5653C39.2233 25.5653 39.3755 25.5265 39.513 25.4488C39.6538 25.3679 39.7652 25.253 39.8469 25.104C39.9287 24.9518 39.9698 24.7753 39.9698 24.5746ZM44.9407 24.4776C44.9407 24.5617 44.9359 24.6507 44.926 24.7446H42.7754C42.7917 25.0069 42.8817 25.2124 43.0454 25.3614C43.2124 25.507 43.4137 25.58 43.6494 25.58C43.8425 25.58 44.003 25.5362 44.1306 25.4488C44.2615 25.3581 44.3531 25.2383 44.4055 25.0894H44.8868C44.8147 25.3453 44.6707 25.5541 44.4547 25.716C44.2386 25.8746 43.9701 25.9538 43.6494 25.9538C43.394 25.9538 43.1649 25.8972 42.962 25.7838C42.7622 25.6706 42.6052 25.5103 42.4905 25.3032C42.376 25.0927 42.3188 24.8498 42.3188 24.5746C42.3188 24.2995 42.3744 24.0582 42.4857 23.851C42.597 23.6439 42.7525 23.4852 42.9521 23.3752C43.1551 23.2618 43.3875 23.2052 43.6494 23.2052C43.9047 23.2052 44.1306 23.2601 44.3271 23.3702C44.5234 23.4803 44.674 23.6325 44.7787 23.8268C44.8868 24.0177 44.9407 24.2348 44.9407 24.4776ZM44.4793 24.3853C44.4793 24.2169 44.4416 24.0728 44.3663 23.953C44.291 23.83 44.1879 23.7378 44.0569 23.6762C43.9292 23.6115 43.7869 23.579 43.6297 23.579C43.4039 23.579 43.2108 23.6503 43.0504 23.7928C42.8932 23.9352 42.8032 24.1328 42.7802 24.3853H44.4793ZM48.7666 23.2002C48.976 23.2002 49.1626 23.244 49.3263 23.3314C49.49 23.4156 49.6192 23.5435 49.7142 23.715C49.8091 23.8867 49.8565 24.0955 49.8565 24.3416V25.9101H49.4146V24.4046C49.4146 24.1392 49.3475 23.9368 49.2133 23.7976C49.0823 23.6551 48.9039 23.584 48.6781 23.584C48.4457 23.584 48.2607 23.6584 48.1232 23.8073C47.9857 23.953 47.917 24.1651 47.917 24.4436V25.9101H47.4751V24.4046C47.4751 24.1392 47.408 23.9368 47.2738 23.7976C47.1428 23.6551 46.9644 23.584 46.7386 23.584C46.5061 23.584 46.3212 23.6584 46.1837 23.8073C46.0462 23.953 45.9774 24.1651 45.9774 24.4436V25.9101H45.5306V23.2489H45.9774V23.6325C46.0659 23.4933 46.1837 23.3864 46.331 23.312C46.4816 23.2375 46.6469 23.2002 46.8269 23.2002C47.0528 23.2002 47.2524 23.2504 47.426 23.3509C47.5995 23.4512 47.7287 23.5985 47.8138 23.7928C47.8892 23.6049 48.0136 23.4593 48.1871 23.3557C48.3606 23.252 48.5538 23.2002 48.7666 23.2002ZM51.0365 23.7393C51.1248 23.5871 51.2558 23.4608 51.4292 23.3605C51.606 23.257 51.8106 23.2052 52.043 23.2052C52.282 23.2052 52.4981 23.2618 52.6912 23.3752C52.8876 23.4884 53.0414 23.6487 53.1528 23.856C53.2641 24.0598 53.3197 24.2978 53.3197 24.5698C53.3197 24.8385 53.2641 25.0781 53.1528 25.2885C53.0414 25.499 52.8876 25.6625 52.6912 25.779C52.4981 25.8956 52.282 25.9538 52.043 25.9538C51.8138 25.9538 51.6109 25.9037 51.4342 25.8033C51.2606 25.6997 51.1281 25.5719 51.0365 25.4197V27.1728H50.5896V23.2489H51.0365V23.7393ZM52.863 24.5698C52.863 24.3691 52.8221 24.1942 52.7402 24.0453C52.6584 23.8964 52.5471 23.783 52.4064 23.7053C52.2689 23.6277 52.1167 23.5888 51.9497 23.5888C51.786 23.5888 51.6338 23.6292 51.4931 23.7102C51.3556 23.788 51.2443 23.9028 51.1591 24.055C51.0774 24.2039 51.0365 24.3772 51.0365 24.5746C51.0365 24.7753 51.0774 24.9518 51.1591 25.104C51.2443 25.253 51.3556 25.3679 51.4931 25.4488C51.6338 25.5265 51.786 25.5653 51.9497 25.5653C52.1167 25.5653 52.2689 25.5265 52.4064 25.4488C52.5471 25.3679 52.6584 25.253 52.7402 25.104C52.8221 24.9518 52.863 24.7737 52.863 24.5698ZM54.3547 23.681C54.4333 23.5288 54.5446 23.4107 54.6886 23.3265C54.836 23.2423 55.0144 23.2002 55.2238 23.2002V23.6568H55.106C54.6052 23.6568 54.3547 23.9255 54.3547 24.4629V25.9101H53.9079V23.2489H54.3547V23.681ZM58.1948 24.4776C58.1948 24.5617 58.1898 24.6507 58.18 24.7446H56.0293C56.0457 25.0069 56.1358 25.2124 56.2993 25.3614C56.4664 25.507 56.6677 25.58 56.9033 25.58C57.0965 25.58 57.2569 25.5362 57.3846 25.4488C57.5156 25.3581 57.6072 25.2383 57.6596 25.0894H58.1407C58.0688 25.3453 57.9246 25.5541 57.7087 25.716C57.4926 25.8746 57.2242 25.9538 56.9033 25.9538C56.648 25.9538 56.4188 25.8972 56.2159 25.7838C56.0163 25.6706 55.8591 25.5103 55.7446 25.3032C55.6299 25.0927 55.5727 24.8498 55.5727 24.5746C55.5727 24.2995 55.6283 24.0582 55.7396 23.851C55.8509 23.6439 56.0064 23.4852 56.206 23.3752C56.4091 23.2618 56.6415 23.2052 56.9033 23.2052C57.1586 23.2052 57.3846 23.2601 57.581 23.3702C57.7774 23.4803 57.928 23.6325 58.0328 23.8268C58.1407 24.0177 58.1948 24.2348 58.1948 24.4776ZM57.7332 24.3853C57.7332 24.2169 57.6955 24.0728 57.6202 23.953C57.545 23.83 57.4418 23.7378 57.311 23.6762C57.1833 23.6115 57.0408 23.579 56.8838 23.579C56.6578 23.579 56.4647 23.6503 56.3043 23.7928C56.1471 23.9352 56.0572 24.1328 56.0343 24.3853H57.7332ZM59.7372 25.9538C59.5309 25.9538 59.346 25.9198 59.1823 25.8518C59.0187 25.7807 58.8894 25.6835 58.7944 25.5605C58.6995 25.4342 58.6471 25.2901 58.6372 25.1282H59.0988C59.112 25.2611 59.1741 25.3695 59.2854 25.4537C59.4 25.5379 59.5489 25.58 59.7323 25.58C59.9025 25.58 60.0367 25.5427 60.1349 25.4682C60.2331 25.3938 60.2822 25.2999 60.2822 25.1865C60.2822 25.07 60.2298 24.9841 60.1252 24.9292C60.0204 24.8709 59.8583 24.8143 59.639 24.7592C59.4393 24.7073 59.2756 24.6556 59.1479 24.6038C59.0236 24.5487 58.9156 24.4695 58.8238 24.3658C58.7355 24.259 58.6913 24.1197 58.6913 23.9482C58.6913 23.8122 58.7322 23.6876 58.8141 23.5742C58.8959 23.4608 59.0121 23.3719 59.1627 23.3071C59.3133 23.2391 59.4852 23.2052 59.6783 23.2052C59.9761 23.2052 60.2168 23.2796 60.4 23.4285C60.5834 23.5775 60.6816 23.7814 60.6947 24.0405H60.2478C60.238 23.9012 60.1807 23.7895 60.076 23.7053C59.9745 23.6211 59.837 23.579 59.6636 23.579C59.5032 23.579 59.3755 23.613 59.2806 23.681C59.1856 23.749 59.1381 23.8381 59.1381 23.9482C59.1381 24.0356 59.1659 24.1085 59.2216 24.1668C59.2806 24.2217 59.3525 24.2671 59.4376 24.3026C59.5261 24.3351 59.6472 24.3723 59.8011 24.4144C59.9942 24.4662 60.1512 24.518 60.2724 24.5698C60.3935 24.6184 60.4967 24.6928 60.5818 24.7932C60.6701 24.8935 60.716 25.0247 60.7193 25.1865C60.7193 25.3322 60.6784 25.4634 60.5965 25.58C60.5147 25.6965 60.3984 25.7888 60.2478 25.8568C60.1005 25.9215 59.9303 25.9538 59.7372 25.9538ZM61.183 24.5698C61.183 24.2978 61.2388 24.0598 61.3501 23.856C61.4614 23.6487 61.6136 23.4884 61.8067 23.3752C62.0031 23.2618 62.2207 23.2052 62.4597 23.2052C62.6955 23.2052 62.9 23.2553 63.0735 23.3557C63.2471 23.456 63.3764 23.5823 63.4615 23.7345V23.2489H63.9131V25.9101H63.4615V25.4148C63.3731 25.5702 63.2404 25.6997 63.0637 25.8033C62.8903 25.9037 62.6872 25.9538 62.4549 25.9538C62.2159 25.9538 61.9998 25.8956 61.8067 25.779C61.6136 25.6625 61.4614 25.499 61.3501 25.2885C61.2388 25.0781 61.183 24.8385 61.183 24.5698ZM63.4615 24.5746C63.4615 24.3739 63.4205 24.1991 63.3387 24.0501C63.2569 23.9012 63.1456 23.788 63.0048 23.7102C62.8673 23.6292 62.7151 23.5888 62.5482 23.5888C62.3811 23.5888 62.2289 23.6277 62.0914 23.7053C61.954 23.783 61.8444 23.8964 61.7625 24.0453C61.6807 24.1942 61.6398 24.3691 61.6398 24.5698C61.6398 24.7737 61.6807 24.9518 61.7625 25.104C61.8444 25.253 61.954 25.3679 62.0914 25.4488C62.2289 25.5265 62.3811 25.5653 62.5482 25.5653C62.7151 25.5653 62.8673 25.5265 63.0048 25.4488C63.1456 25.3679 63.2569 25.253 63.3387 25.104C63.4205 24.9518 63.4615 24.7753 63.4615 24.5746Z" fill="#202737"/>
<path d="M67.7852 26.0387H66.9261V22.2205H67.7852V26.0387Z" fill="#011331"/>
<path d="M68.7425 25.6968C68.4414 25.4158 68.2937 25.0695 68.2937 24.6632C68.2937 24.2568 68.4414 23.9108 68.7425 23.6348C69.0436 23.3538 69.4321 23.2135 69.9083 23.2135C70.3843 23.2135 70.7786 23.3538 71.0794 23.6348C71.3805 23.9108 71.5336 24.2568 71.5336 24.6632C71.5336 25.0697 71.3801 25.4158 71.0794 25.6968C70.7783 25.9728 70.3843 26.1131 69.9083 26.1131C69.4321 26.1134 69.0436 25.9728 68.7425 25.6968ZM70.4499 24.1565C70.3022 24.0162 70.1216 23.9459 69.9079 23.9459C69.6946 23.9459 69.5139 24.0162 69.3663 24.1565C69.2186 24.292 69.1473 24.4625 69.1473 24.6583C69.1473 24.8641 69.2183 25.0346 69.3663 25.1753C69.5139 25.3106 69.6946 25.3809 69.9079 25.3809C70.1212 25.3809 70.3019 25.3106 70.4499 25.1753C70.5976 25.0348 70.6743 24.8641 70.6743 24.6583C70.6743 24.4625 70.5979 24.292 70.4499 24.1565Z" fill="#011331"/>
<path d="M72.333 25.697C72.0376 25.4262 71.8896 25.0798 71.8896 24.6586C71.8896 24.237 72.0372 23.891 72.3383 23.625C72.6394 23.3543 73.0224 23.2187 73.4987 23.2187C74.1171 23.2187 74.6645 23.4995 74.9107 24.0013L74.2268 24.3375C74.0514 24.0766 73.8163 23.9462 73.5152 23.9462C73.2908 23.9462 73.1101 24.0165 72.9625 24.1518C72.8147 24.2872 72.7434 24.4578 72.7434 24.6586C72.7434 24.8643 72.8145 25.0398 72.9567 25.1755C73.1045 25.3109 73.2852 25.3762 73.5041 25.3762C73.8052 25.3762 74.0841 25.2156 74.2103 24.9898L74.9053 25.3661C74.6426 25.8127 74.1117 26.0986 73.4822 26.0986C73.0118 26.0986 72.6287 25.9632 72.333 25.697Z" fill="#011331"/>
<path d="M77.5874 23.289H78.3975V26.0384H77.5874V25.7574C77.33 25.9934 77.0236 26.1087 76.6625 26.1087C76.2356 26.1087 75.88 25.9684 75.6008 25.6923C75.3216 25.4114 75.185 25.065 75.185 24.6487C75.185 24.2373 75.3272 23.8962 75.6064 23.625C75.8857 23.3543 76.2413 23.2187 76.6628 23.2187C77.0242 23.2187 77.3306 23.3389 77.5876 23.5798L77.5874 23.289ZM76.2574 25.1804C76.4052 25.321 76.5859 25.391 76.8103 25.391C77.0347 25.391 77.2153 25.3207 77.363 25.1751C77.5107 25.0297 77.5874 24.859 77.5874 24.6583C77.5874 24.4576 77.5107 24.287 77.363 24.1467C77.2153 24.006 77.0347 23.936 76.8103 23.936C76.5859 23.936 76.4052 24.0062 76.2574 24.1467C76.1152 24.287 76.0441 24.4578 76.0441 24.6583C76.0441 24.8643 76.1152 25.0348 76.2574 25.1804Z" fill="#011331"/>
<path d="M86.5471 24.9294H84.3415C84.4455 25.2755 84.7193 25.4462 85.1571 25.4462C85.4965 25.4462 85.8083 25.3559 86.0929 25.1804L86.4324 25.7174C86.0657 25.9733 85.628 26.0986 85.119 26.0986C84.5881 26.0986 84.183 25.9581 83.8984 25.6822C83.6192 25.4062 83.4768 25.065 83.4768 24.6586C83.4768 24.2422 83.6246 23.9011 83.9147 23.6301C84.2046 23.354 84.5878 23.2187 85.0584 23.2187C85.5019 23.2187 85.8629 23.3442 86.1475 23.5899C86.4321 23.8357 86.5745 24.1719 86.5745 24.5984C86.5747 24.6937 86.5636 24.8042 86.5471 24.9294ZM84.3361 24.3675H85.7482C85.6661 24.0514 85.4143 23.8558 85.0584 23.8558C84.7085 23.8558 84.4293 24.0464 84.3361 24.3675Z" fill="#011331"/>
<path d="M89.8694 23.6353C90.1595 23.9113 90.3018 24.2523 90.3018 24.6637C90.3018 25.0802 90.1595 25.4212 89.8749 25.6973C89.5903 25.9733 89.2347 26.1087 88.8077 26.1087C88.4464 26.1087 88.1456 25.9832 87.9101 25.7324V26.0384H87.0781V22.2205H87.9374V23.5603C88.1728 23.3345 88.4629 23.2192 88.8077 23.2192C89.2289 23.2189 89.5848 23.3592 89.8694 23.6353ZM89.2128 24.1521C89.0705 24.0118 88.8898 23.9415 88.6655 23.9415C88.4411 23.9415 88.2604 24.0118 88.1126 24.1521C87.9704 24.2875 87.8991 24.4581 87.8991 24.6588C87.8991 24.8646 87.9704 25.0351 88.1126 25.1758C88.2604 25.3163 88.4411 25.3863 88.6655 25.3863C88.8898 25.3863 89.0705 25.3161 89.2128 25.1758C89.3551 25.0353 89.4261 24.8646 89.4261 24.6588C89.4261 24.4581 89.3548 24.2875 89.2128 24.1521Z" fill="#011331"/>
<path d="M80.4924 26.0988H79.6823L78.7639 23.2892H79.5736L80.4924 26.0988Z" fill="#011331"/>
<path d="M82.3676 26.0988H81.5577L80.6391 23.2892H81.449L82.3676 26.0988Z" fill="#011331"/>
<path d="M80.5018 26.0978H79.6919L80.6105 23.2882H81.4206L80.5018 26.0978ZM82.3653 26.0978H81.5554L82.474 23.2882H83.2841L82.3653 26.0978Z" fill="#8C96A5"/>
<path d="M90.7855 24.6718C90.7855 25.4639 91.4251 26.0503 92.278 26.0503C93.0105 26.0503 93.4863 25.6342 93.6287 25.2185L93.1092 25.0279C93.0052 25.3635 92.699 25.5742 92.2889 25.5742C91.764 25.5742 91.3649 25.2132 91.3649 24.6718C91.3649 24.1306 91.764 23.7696 92.2889 23.7696C92.6936 23.7696 92.9887 23.9801 93.0927 24.321L93.6122 24.1306C93.4702 23.7045 92.9944 23.2935 92.2726 23.2935C91.4144 23.2935 90.7855 23.89 90.7855 24.6718Z" fill="#8C96A5"/>
<path d="M101.459 25.9902H102.033V24.3561C102.033 23.7497 101.634 23.2885 100.917 23.2885C100.409 23.2885 100.07 23.509 99.9166 23.7747C99.7524 23.4689 99.4462 23.2885 98.965 23.2885C98.5552 23.2885 98.238 23.464 98.0575 23.6846V23.3486H97.5108V25.9902H98.0905V24.3561C98.0963 24.0754 98.3586 23.7647 98.7961 23.7647C99.2335 23.7595 99.4849 24.0553 99.4849 24.4514V25.9902H100.065V24.3561C100.07 24.0806 100.327 23.7647 100.77 23.7647C101.208 23.7595 101.459 24.0553 101.459 24.4514V25.9902Z" fill="#8C96A5"/>
<path d="M111.843 25.9902H112.422V24.3608C112.422 23.7143 111.985 23.2882 111.263 23.2882C110.837 23.2882 110.509 23.4535 110.312 23.6843V23.3484H109.765V25.9899H110.345V24.381C110.35 24.055 110.667 23.7644 111.099 23.7644C111.559 23.7595 111.843 24.0201 111.843 24.4563V25.9902Z" fill="#8C96A5"/>
<path d="M114.112 26.8874L114.496 25.9902L115.632 23.3486H115.03L114.134 25.5541L113.297 23.3486H112.702L113.774 25.9902H113.937L113.544 26.8874H114.112Z" fill="#8C96A5"/>
<path fill-rule="evenodd" clip-rule="evenodd" d="M109.054 25.9915H108.518V25.5604C108.299 25.866 107.95 26.0517 107.502 26.0517C106.675 26.0517 106.079 25.4601 106.079 24.6683C106.079 23.8864 106.681 23.325 107.502 23.325C107.949 23.325 108.299 23.4954 108.518 23.796V23.35H109.054V25.9915ZM107.572 23.7603C107.048 23.7603 106.654 24.1511 106.654 24.6674C106.654 25.1937 107.042 25.5798 107.572 25.5798C108.119 25.5798 108.496 25.2038 108.496 24.6674C108.496 24.1363 108.124 23.7603 107.572 23.7603Z" fill="#8C96A5"/>
<path fill-rule="evenodd" clip-rule="evenodd" d="M95.4685 26.0451C94.5825 26.0451 93.954 25.4536 93.954 24.6666C93.954 23.8749 94.5829 23.2882 95.4685 23.2882C96.3598 23.2882 96.9887 23.8747 96.9887 24.6666C96.9883 25.4536 96.3595 26.0451 95.4685 26.0451ZM95.4737 23.7509C94.9157 23.7509 94.5332 24.1269 94.5332 24.6581C94.5332 25.1793 94.9157 25.5603 95.4737 25.5603C96.0257 25.5603 96.4086 25.1842 96.4086 24.6581C96.4086 24.1266 96.0311 23.7509 95.4737 23.7509Z" fill="#8C96A5"/>
<path fill-rule="evenodd" clip-rule="evenodd" d="M104.265 26.0503C103.849 26.0503 103.516 25.8997 103.291 25.6391V26.8871H102.712V23.3486H103.248V23.7647C103.477 23.4689 103.833 23.2934 104.276 23.2934C105.101 23.2934 105.686 23.885 105.686 24.6718C105.686 25.4588 105.085 26.0503 104.265 26.0503ZM104.193 23.7593C103.646 23.7593 103.264 24.1353 103.264 24.6713C103.264 25.2075 103.641 25.5785 104.193 25.5785C104.718 25.5785 105.112 25.1926 105.112 24.6713C105.112 24.1451 104.723 23.7593 104.193 23.7593Z" fill="#8C96A5"/>
</svg>
