<svg width="180" height="41" viewBox="0 0 180 41" fill="none" xmlns="http://www.w3.org/2000/svg">
<path d="M16.2562 10C7.37095 10 0.138523 16.8907 0.134754 25.3599C0.134754 28.0672 0.876372 30.7098 2.28705 33.039L0 41L8.54604 38.8638C10.9009 40.0877 13.5517 40.7324 16.2496 40.7333H16.2562C25.1406 40.7333 32.373 33.8417 32.3768 25.3725C32.3787 21.2681 30.7032 17.4088 27.6594 14.5058C24.6157 11.6019 20.5684 10.0018 16.2562 10ZM16.2562 38.1392H16.2506C13.8467 38.1392 11.488 37.5223 9.4309 36.3595L8.94182 36.083L3.87112 37.3508L5.22431 32.6394L4.9058 32.1563C3.56486 30.1234 2.85622 27.7735 2.85716 25.3617C2.85999 18.322 8.87115 12.595 16.2619 12.595C19.8409 12.5959 23.205 13.9257 25.7342 16.3394C28.2644 18.7521 29.6562 21.9604 29.6553 25.3716C29.6525 32.4113 23.6413 38.1392 16.2562 38.1392ZM23.6055 28.5772C23.2031 28.385 21.2223 27.4566 20.8529 27.3282C20.4836 27.1998 20.215 27.136 19.9464 27.5203C19.6779 27.9046 18.9061 28.7693 18.6714 29.0253C18.4368 29.2821 18.2012 29.3135 17.7988 29.1213C17.3965 28.9292 16.0979 28.5233 14.56 27.2159C13.3623 26.1986 12.5538 24.9415 12.3192 24.5572C12.0845 24.1729 12.2937 23.9654 12.4963 23.7742C12.6772 23.6027 12.8987 23.3261 13.1004 23.1016C13.302 22.8772 13.3689 22.7173 13.5027 22.4605C13.6365 22.2046 13.5696 21.9801 13.4688 21.788C13.368 21.5958 12.5623 19.7066 12.2268 18.938C11.8998 18.19 11.5681 18.2906 11.3203 18.2789C11.0856 18.2672 10.8171 18.2654 10.5485 18.2654C10.2799 18.2654 9.84364 18.3615 9.47424 18.7458C9.10485 19.1301 8.06451 20.0586 8.06451 21.9478C8.06451 23.837 9.50817 25.6625 9.70888 25.9184C9.91054 26.1743 12.5491 30.0516 16.5898 31.7136C17.551 32.1087 18.3011 32.3449 18.8863 32.5218C19.8512 32.8136 20.7295 32.7723 21.4231 32.6735C22.1967 32.5631 23.8062 31.7451 24.1417 30.848C24.4772 29.9519 24.4772 29.1833 24.3763 29.0226C24.2755 28.8627 24.0069 28.7667 23.6046 28.5745V28.5772H23.6055ZM52.1244 28.3428H52.081L49.4085 18.0688H46.1876L43.4709 28.2171H43.4275L40.952 18.0688H37.5125L41.6531 32.9788H45.1369L47.7434 22.8296H47.7877L50.4385 32.9788H53.8564L58.063 18.0688H54.6894L52.1253 28.3428H52.1244ZM68.5559 23.1115C68.2496 22.729 67.8293 22.43 67.2969 22.2136C66.7635 21.999 66.0803 21.8912 65.2483 21.8912C64.664 21.8912 64.0656 22.0331 63.4512 22.3195C62.8378 22.6042 62.3346 23.0603 61.9397 23.6871H61.8738V18.0688H58.7631V32.9779H61.8738V27.3192C61.8738 26.2192 62.0632 25.43 62.4439 24.9487C62.8236 24.4692 63.4371 24.2285 64.2843 24.2285C65.0287 24.2285 65.547 24.4476 65.8401 24.8867C66.1322 25.3249 66.2782 25.9894 66.2782 26.8801V32.9779H69.3898V26.3378C69.3898 25.6697 69.3267 25.0609 69.2033 24.5105C69.0789 23.9619 68.864 23.4949 68.5568 23.1115H68.5559ZM81.3726 30.5769V24.9603C81.3726 24.3049 81.2199 23.7796 80.9118 23.3836C80.6055 22.9867 80.2116 22.6769 79.7301 22.4542C79.2476 22.2315 78.7142 22.0816 78.13 22.0053C77.5457 21.9289 76.969 21.8903 76.3999 21.8903C75.7723 21.8903 75.1475 21.9487 74.5274 22.0681C73.9055 22.1867 73.3476 22.3851 72.851 22.6635C72.3544 22.9418 71.9445 23.3109 71.6251 23.7697C71.3028 24.2294 71.12 24.8068 71.0766 25.5036H74.1873C74.2457 24.919 74.4511 24.5006 74.8017 24.2501C75.1522 23.9996 75.6338 23.8748 76.2472 23.8748C76.5243 23.8748 76.7834 23.8918 77.0246 23.9268C77.2649 23.9619 77.477 24.0301 77.6598 24.1352C77.8426 24.2393 77.9886 24.3857 78.098 24.5742C78.2073 24.7619 78.2619 25.0169 78.2619 25.3357C78.2761 25.6428 78.1809 25.8744 77.9773 26.0352C77.7719 26.1959 77.4949 26.318 77.1443 26.4006C76.7938 26.485 76.3923 26.5479 75.9391 26.5883C75.4858 26.6314 75.0259 26.688 74.5595 26.7562C74.0911 26.8262 73.6275 26.9196 73.1686 27.0381C72.7087 27.1558 72.2979 27.3345 71.9407 27.5697C71.5826 27.8077 71.2905 28.1237 71.0634 28.5206C70.8373 28.9175 70.7242 29.423 70.7242 30.0345C70.7242 30.5912 70.8231 31.0716 71.0201 31.4748C71.217 31.8798 71.4912 32.2129 71.8418 32.4778C72.1923 32.7427 72.6013 32.9375 73.0687 33.0632C73.5352 33.188 74.0403 33.2509 74.5802 33.2509C75.2813 33.2509 75.9683 33.153 76.6392 32.9591C77.3111 32.7624 77.8963 32.423 78.3929 31.9345C78.407 32.1159 78.4325 32.2937 78.4692 32.467C78.506 32.6403 78.5531 32.8118 78.6115 32.9779H81.7665C81.6204 32.7561 81.5177 32.4221 81.4593 31.9758C81.3999 31.5305 81.3707 31.0653 81.3707 30.5769H81.3726ZM78.2619 28.8017C78.2619 28.9705 78.244 29.1932 78.2073 29.4706C78.1715 29.7499 78.0725 30.0238 77.9114 30.2958C77.7502 30.567 77.5015 30.8014 77.166 30.9953C76.8305 31.1911 76.3556 31.288 75.7412 31.288C75.4933 31.288 75.2521 31.2674 75.0184 31.2243C74.7847 31.183 74.5802 31.1093 74.4049 31.0052C74.2297 30.901 74.0911 30.7583 73.9884 30.5769C73.8867 30.3955 73.8348 30.1737 73.8348 29.9097C73.8348 29.6314 73.8867 29.4006 73.9884 29.2201C74.0911 29.0396 74.2259 28.8897 74.3946 28.7711C74.5614 28.6526 74.7593 28.5592 74.9854 28.4892C75.2116 28.4201 75.4415 28.3644 75.6762 28.3222C75.924 28.2809 76.1728 28.245 76.4206 28.218C76.6703 28.1911 76.9068 28.1552 77.133 28.1139C77.3601 28.0717 77.5712 28.0196 77.7691 27.9567C77.966 27.8939 78.13 27.8086 78.2619 27.6963V28.8026V28.8017ZM87.1792 18.946H84.0677V22.1822H82.1839V24.1657H84.0677V30.5356C84.0677 31.0788 84.1638 31.517 84.3532 31.851C84.5435 32.1851 84.8027 32.4437 85.1306 32.6241C85.4595 32.8055 85.8392 32.9267 86.2708 32.9887C86.7005 33.0507 87.1585 33.083 87.6401 33.083C87.9482 33.083 88.261 33.0758 88.5833 33.0632C88.9037 33.0489 89.1958 33.0219 89.4597 32.9788V30.6819C89.3127 30.7098 89.16 30.7322 88.9989 30.7448C88.8387 30.7592 88.671 30.7663 88.4957 30.7663C87.9708 30.7663 87.6193 30.6819 87.444 30.5149C87.2697 30.3479 87.1821 30.0139 87.1821 29.5119V24.1657H89.4606V22.1822H87.1821V18.946H87.1792ZM100.038 28.2495C99.8339 27.9082 99.5634 27.6227 99.228 27.3928C98.8925 27.1639 98.508 26.9789 98.0783 26.8388C97.6467 26.7005 97.2048 26.5829 96.7524 26.485C96.3142 26.3872 95.8845 26.2965 95.4605 26.213C95.0364 26.1294 94.6604 26.0352 94.3316 25.9319C94.0036 25.8268 93.7379 25.6922 93.5334 25.5242C93.328 25.3572 93.2272 25.1426 93.2272 24.8768C93.2272 24.6542 93.2837 24.4764 93.4015 24.3444C93.5183 24.2124 93.6616 24.1118 93.8293 24.0409C93.998 23.9717 94.1827 23.9268 94.3872 23.9053C94.5917 23.8846 94.782 23.8748 94.9563 23.8748C95.5114 23.8748 95.9939 23.9753 96.4038 24.1774C96.8118 24.3794 97.0389 24.7655 97.0813 25.3357H100.039C99.9809 24.6676 99.8018 24.1145 99.5031 23.6754C99.2044 23.2372 98.8275 22.8861 98.3751 22.6212C97.9228 22.3564 97.4083 22.1687 96.8297 22.0574C96.253 21.946 95.6584 21.8903 95.0459 21.8903C94.4333 21.8903 93.8321 21.9424 93.2498 22.0457C92.6646 22.1507 92.1388 22.3321 91.6723 22.5898C91.204 22.8475 90.8289 23.1986 90.5434 23.644C90.2579 24.0894 90.1156 24.6604 90.1156 25.3563C90.1156 25.8295 90.2183 26.2309 90.4237 26.5578C90.6263 26.8855 90.8977 27.1558 91.2322 27.3722C91.5696 27.5877 91.9531 27.7628 92.3838 27.8939C92.8144 28.0277 93.2564 28.1417 93.7087 28.2396C94.8197 28.4623 95.6857 28.6849 96.3058 28.9085C96.9268 29.1312 97.2368 29.4652 97.2368 29.9106C97.2368 30.1755 97.1718 30.3928 97.0399 30.567C96.9079 30.7421 96.744 30.8804 96.547 30.9845C96.3491 31.0896 96.1296 31.1668 95.8893 31.2144C95.648 31.2638 95.4171 31.288 95.1985 31.288C94.8913 31.288 94.5964 31.253 94.3118 31.1839C94.0263 31.1138 93.7747 31.0061 93.5551 30.8597C93.3365 30.7134 93.1565 30.5257 93.018 30.2958C92.8804 30.066 92.8097 29.7921 92.8097 29.4706H89.8527C89.8828 30.1944 90.0534 30.7969 90.3681 31.2773C90.681 31.7576 91.0824 32.1438 91.5724 32.4365C92.0615 32.7283 92.6212 32.9375 93.2498 33.0632C93.8764 33.188 94.5191 33.2509 95.1759 33.2509C95.8327 33.2509 96.4509 33.1916 97.0719 33.074C97.6929 32.9555 98.2442 32.7499 98.7257 32.4571C99.2091 32.1653 99.5973 31.7792 99.898 31.2988C100.197 30.8175 100.347 30.2231 100.347 29.5128C100.347 29.0109 100.245 28.5907 100.04 28.2503H100.038V28.2495ZM106.216 18.0688L100.301 32.9788H103.762L104.988 29.6583H110.838L112.02 32.9788H115.593L109.743 18.0688H106.215H106.216ZM105.888 27.2159L107.926 21.7449H107.969L109.941 27.2159H105.888ZM126.35 23.6449C125.927 23.116 125.394 22.6913 124.751 22.3716C124.108 22.0511 123.342 21.8912 122.452 21.8912C121.75 21.8912 121.108 22.0232 120.524 22.2872C119.938 22.5521 119.457 22.9768 119.078 23.5614H119.034V22.1822H116.075V36.7591H119.189V31.6427H119.231C119.611 32.1725 120.097 32.5721 120.69 32.8423C121.28 33.1135 121.927 33.25 122.628 33.25C123.461 33.25 124.188 33.0956 124.808 32.7903C125.429 32.4841 125.947 32.0728 126.363 31.5574C126.78 31.042 127.089 30.4512 127.295 29.7831C127.498 29.1142 127.602 28.4183 127.602 27.6945C127.602 26.9286 127.498 26.195 127.295 25.491C127.089 24.7888 126.776 24.172 126.352 23.6431L126.35 23.6449ZM124.357 28.8861C124.269 29.3045 124.119 29.6691 123.908 29.9824C123.696 30.2958 123.419 30.5508 123.074 30.7448C122.732 30.9396 122.304 31.0384 121.793 31.0384C121.282 31.0384 120.874 30.9405 120.524 30.7448C120.173 30.5508 119.891 30.2958 119.679 29.9824C119.467 29.6691 119.315 29.3045 119.22 28.8861C119.124 28.4685 119.078 28.0438 119.078 27.6137C119.078 27.1836 119.121 26.7355 119.208 26.3189C119.297 25.9014 119.446 25.5323 119.659 25.2109C119.869 24.8912 120.148 24.6308 120.492 24.4288C120.835 24.2267 121.261 24.1244 121.772 24.1244C122.284 24.1244 122.69 24.2267 123.032 24.4288C123.375 24.6299 123.657 24.8939 123.876 25.2216C124.094 25.5494 124.251 25.922 124.347 26.3387C124.443 26.7562 124.488 27.1818 124.488 27.6137C124.488 28.0456 124.446 28.4694 124.358 28.8861H124.357ZM139.692 25.4928C139.487 24.7906 139.174 24.1738 138.75 23.6449C138.325 23.116 137.794 22.6913 137.151 22.3716C136.508 22.0511 135.741 21.8912 134.85 21.8912C134.15 21.8912 133.506 22.0232 132.923 22.2872C132.339 22.5521 131.856 22.9768 131.477 23.5614H131.434V22.1822H128.476V36.7591H131.587V31.6427H131.631C132.011 32.1725 132.497 32.5721 133.088 32.8423C133.679 33.1135 134.326 33.25 135.027 33.25C135.859 33.25 136.585 33.0956 137.207 32.7903C137.827 32.4841 138.346 32.0728 138.762 31.5574C139.179 31.042 139.488 30.4512 139.693 29.7831C139.898 29.1142 140 28.4183 140 27.6945C140 26.9286 139.898 26.195 139.693 25.491V25.4928H139.692ZM136.756 28.8861C136.669 29.3045 136.519 29.6691 136.307 29.9824C136.094 30.2958 135.817 30.5508 135.474 30.7448C135.131 30.9396 134.704 31.0384 134.192 31.0384C133.681 31.0384 133.272 30.9405 132.921 30.7448C132.57 30.5508 132.29 30.2958 132.077 29.9824C131.866 29.6691 131.712 29.3045 131.617 28.8861C131.522 28.4685 131.475 28.0438 131.475 27.6137C131.475 27.1836 131.519 26.7355 131.607 26.3189C131.694 25.9014 131.844 25.5323 132.056 25.2109C132.267 24.8912 132.545 24.6308 132.889 24.4288C133.231 24.2267 133.659 24.1244 134.171 24.1244C134.682 24.1244 135.087 24.2267 135.43 24.4288C135.774 24.6299 136.054 24.8939 136.274 25.2216C136.494 25.5494 136.651 25.922 136.745 26.3387C136.841 26.7562 136.887 27.1818 136.887 27.6137C136.887 28.0456 136.843 28.4694 136.756 28.8861Z" fill="#25D366"/>
</svg>
