<svg width="136" height="63" viewBox="0 0 136 63" fill="none" xmlns="http://www.w3.org/2000/svg">
<path d="M8.79296 22.7496H4.08984V0H8.79296V22.7496Z" fill="#011331"/>
<path d="M14.0346 20.7155C12.3866 19.0415 11.5781 16.9779 11.5781 14.5576C11.5781 12.1357 12.3866 10.0738 14.0346 8.42922C15.6827 6.75516 17.8096 5.91895 20.4153 5.91895C23.0211 5.91895 25.1791 6.75516 26.8255 8.42922C28.4736 10.0738 29.3116 12.1357 29.3116 14.5576C29.3116 16.9796 28.4719 19.0415 26.8255 20.7155C25.1775 22.3601 23.0211 23.1963 20.4153 23.1963C17.8096 23.198 15.6827 22.3601 14.0346 20.7155ZM23.3802 11.5384C22.5717 10.7022 21.5829 10.2833 20.4137 10.2833C19.2461 10.2833 18.2573 10.7022 17.4488 11.5384C16.6404 12.3452 16.2501 13.3614 16.2501 14.5282C16.2501 15.7539 16.6387 16.7701 17.4488 17.6079C18.2573 18.4147 19.2461 18.8336 20.4137 18.8336C21.5813 18.8336 22.5701 18.4147 23.3802 17.6079C24.1886 16.7717 24.6084 15.7539 24.6084 14.5282C24.6084 13.3614 24.1903 12.3452 23.3802 11.5384Z" fill="#011331"/>
<path d="M33.6848 20.7154C32.0679 19.1018 31.2578 17.0383 31.2578 14.528C31.2578 12.0161 32.0663 9.95422 33.7143 8.37016C35.3624 6.75664 37.4581 5.94824 40.0655 5.94824C43.4502 5.94824 46.4462 7.62231 47.7941 10.6121L44.0503 12.615C43.091 11.0604 41.8037 10.2831 40.1557 10.2831C38.9274 10.2831 37.9386 10.7021 37.1301 11.5088C36.3217 12.3156 35.9314 13.3318 35.9314 14.528C35.9314 15.7537 36.3201 16.7994 37.099 17.6078C37.9074 18.4145 38.8963 18.804 40.095 18.804C41.7431 18.804 43.2698 17.8467 43.9602 16.5016L47.7646 18.7435C46.3265 21.4043 43.4206 23.1078 39.9753 23.1078C37.4007 23.1078 35.3033 22.3011 33.6848 20.7154Z" fill="#011331"/>
<path d="M62.4469 6.36717H66.8811V22.7494H62.4469V21.0754C61.0383 22.4811 59.3607 23.1684 57.3847 23.1684C55.0479 23.1684 53.1013 22.3322 51.573 20.6875C50.0447 19.0135 49.2969 16.9499 49.2969 14.4691C49.2969 12.0178 50.0758 9.98531 51.6042 8.37016C53.1325 6.75664 55.079 5.94824 57.3863 5.94824C59.364 5.94824 61.0415 6.665 62.4485 8.10014V6.36717H62.4469ZM55.1676 17.6372C55.976 18.4751 56.9649 18.8924 58.1931 18.8924C59.4214 18.8924 60.4102 18.4735 61.2186 17.6062C62.0271 16.7388 62.4469 15.7226 62.4469 14.5264C62.4469 13.3302 62.0271 12.3139 61.2186 11.4777C60.4102 10.6399 59.4214 10.2226 58.1931 10.2226C56.9649 10.2226 55.976 10.6415 55.1676 11.4777C54.3886 12.3139 54 13.3318 54 14.5264C54 15.7537 54.3886 16.7699 55.1676 17.6372Z" fill="#011331"/>
<path d="M111.487 16.1415H99.4143C99.9833 18.2034 101.482 19.2213 103.878 19.2213C105.736 19.2213 107.443 18.6829 109.001 17.6372L110.859 20.8365C108.852 22.3616 106.456 23.1078 103.67 23.1078C100.764 23.1078 98.5468 22.2716 96.9889 20.627C95.4606 18.9824 94.6816 16.9499 94.6816 14.528C94.6816 12.0472 95.4901 10.0148 97.0775 8.39961C98.6649 6.755 100.762 5.94824 103.338 5.94824C105.765 5.94824 107.741 6.69609 109.299 8.16069C110.857 9.6253 111.636 11.6283 111.636 14.1697C111.638 14.7375 111.577 15.3953 111.487 16.1415ZM99.3848 12.7934H107.113C106.664 10.9099 105.287 9.74475 103.338 9.74475C101.423 9.74475 99.8947 10.8804 99.3848 12.7934Z" fill="#011331"/>
<path d="M129.671 8.42924C131.259 10.0738 132.037 12.1063 132.037 14.5577C132.037 17.0385 131.259 19.0709 129.701 20.7155C128.143 22.3601 126.196 23.1669 123.859 23.1669C121.882 23.1669 120.235 22.4191 118.946 20.925V22.748H114.393V0H119.096V7.98249C120.385 6.63735 121.972 5.95005 123.859 5.95005C126.165 5.94841 128.113 6.78463 129.671 8.42924ZM126.077 11.509C125.298 10.6728 124.309 10.2539 123.081 10.2539C121.852 10.2539 120.863 10.6728 120.055 11.509C119.276 12.3158 118.886 13.332 118.886 14.5282C118.886 15.7539 119.276 16.7701 120.055 17.608C120.863 18.4458 121.852 18.8631 123.081 18.8631C124.309 18.8631 125.298 18.4442 126.077 17.608C126.856 16.7717 127.244 15.7539 127.244 14.5282C127.244 13.332 126.854 12.3158 126.077 11.509Z" fill="#011331"/>
<path d="M78.3487 23.1083H73.9145L68.8867 6.36768H73.3193L78.3487 23.1083Z" fill="#011331"/>
<path d="M88.6127 23.1083H84.1802L79.1523 6.36768H83.5849L88.6127 23.1083Z" fill="#011331"/>
<path d="M0 49.0646C0 53.7841 3.5011 57.2779 8.16978 57.2779C12.1792 57.2779 14.7833 54.7987 15.5623 52.3211L12.7187 51.1854C12.1497 53.1852 10.4738 54.4403 8.22881 54.4403C5.35578 54.4403 3.17149 52.29 3.17149 49.0646C3.17149 45.8392 5.35578 43.689 8.22881 43.689C10.4443 43.689 12.0595 44.9425 12.6285 46.9733L15.4721 45.8392C14.6948 43.3011 12.0907 40.8514 8.14026 40.8514C3.44207 40.8514 0 44.4057 0 49.0646Z" fill="#8C96A5"/>
<path d="M58.4216 56.9195H61.5619V47.1827C61.5619 43.5695 59.3776 40.8219 55.4567 40.8219C52.6739 40.8219 50.8176 42.136 49.9796 43.7184C49.081 41.8971 47.405 40.8219 44.7714 40.8219C42.5281 40.8219 40.7915 41.8676 39.8043 43.1817V41.1803H36.8115V56.9195H39.9847V47.1827C40.0158 45.5103 41.4523 43.6595 43.8465 43.6595C46.2407 43.6284 47.6166 45.3909 47.6166 47.7506V56.9195H50.7897V47.1827C50.8209 45.5414 52.2279 43.6595 54.6516 43.6595C57.0458 43.6284 58.4216 45.3909 58.4216 47.7506V56.9195Z" fill="#8C96A5"/>
<path d="M115.259 56.9195H118.429V47.2106C118.429 43.3584 116.035 40.8203 112.084 40.8203C109.751 40.8203 107.955 41.8054 106.878 43.18V41.1787H103.885V56.9179H107.058V47.3317C107.088 45.3892 108.824 43.6579 111.189 43.6579C113.703 43.6284 115.259 45.1814 115.259 47.78V56.9195Z" fill="#8C96A5"/>
<path d="M127.681 62.2657L129.777 56.9195L136 41.1803H132.707L127.799 54.3208L123.221 41.1803H119.959L125.825 56.9195H126.723L124.569 62.2657H127.681Z" fill="#8C96A5"/>
<path fill-rule="evenodd" clip-rule="evenodd" d="M99.997 56.9193H97.0633V54.3501C95.8662 56.1715 93.9508 57.2777 91.496 57.2777C86.9765 57.2777 83.7148 53.7528 83.7148 49.035C83.7148 44.3761 87.006 41.0312 91.496 41.0312C93.9492 41.0312 95.8662 42.0458 97.0633 43.8377V41.1802H99.997V56.9193ZM91.8852 43.6279C89.0122 43.6279 86.8574 45.9566 86.8574 49.0331C86.8574 52.1684 88.9827 54.4693 91.8852 54.4693C94.878 54.4693 96.9426 52.229 96.9426 49.0331C96.9426 45.8682 94.9075 43.6279 91.8852 43.6279Z" fill="#8C96A5"/>
<path fill-rule="evenodd" clip-rule="evenodd" d="M25.6332 57.2477C20.7842 57.2477 17.3438 53.7229 17.3438 49.0345C17.3438 44.3167 20.7858 40.8213 25.6332 40.8213C30.5118 40.8213 33.9539 44.3151 33.9539 49.0345C33.9522 53.7229 30.5102 57.2477 25.6332 57.2477ZM25.6631 43.5713C22.6097 43.5713 20.5156 45.8116 20.5156 48.9764C20.5156 52.0823 22.6097 54.3521 25.6631 54.3521C28.6854 54.3521 30.7812 52.1118 30.7812 48.9764C30.7812 45.8099 28.7149 43.5713 25.6631 43.5713Z" fill="#8C96A5"/>
<path d="M78.3974 23.1078H73.9648L78.9926 6.36719H83.4268L78.3974 23.1078ZM88.5973 23.1078H84.1648L89.1926 6.36719H93.6267L88.5973 23.1078Z" fill="#8C96A5"/>
<path fill-rule="evenodd" clip-rule="evenodd" d="M73.7764 57.278C71.5019 57.278 69.6768 56.3813 68.4485 54.8283V62.2642H65.2754V41.1805H68.2091V43.6597C69.4669 41.8972 71.4117 40.8516 73.8355 40.8516C78.3549 40.8516 81.5575 44.3764 81.5575 49.0648C81.5575 53.7532 78.2647 57.278 73.7764 57.278ZM73.3875 43.6288C70.3948 43.6288 68.2991 45.8691 68.2991 49.0634C68.2991 52.2577 70.3636 54.4685 73.3875 54.4685C76.2606 54.4685 78.4153 52.1693 78.4153 49.0634C78.4153 45.928 76.2901 43.6288 73.3875 43.6288Z" fill="#8C96A5"/>
</svg>
