<svg width="85" height="18" viewBox="0 0 85 18" fill="none" xmlns="http://www.w3.org/2000/svg">
<rect width="18" height="18" fill="white"/>
<path d="M9.00024 12.9526L12.1127 14.8351C12.6827 15.1801 13.3802 14.6701 13.2302 14.0251L12.4052 10.4851L15.1577 8.10007C15.6602 7.66507 15.3902 6.84007 14.7302 6.78757L11.1077 6.48007L9.69024 3.13507C9.43524 2.52757 8.56524 2.52757 8.31024 3.13507L6.89274 6.47257L3.27024 6.78007C2.61024 6.83257 2.34024 7.65757 2.84274 8.09257L5.59524 10.4776L4.77024 14.0176C4.62024 14.6626 5.31774 15.1726 5.88774 14.8276L9.00024 12.9526Z" fill="#1BBB60"/>
<rect width="18" height="18" transform="translate(18)" fill="white"/>
<path d="M27.0002 12.9526L30.1127 14.8351C30.6827 15.1801 31.3802 14.6701 31.2302 14.0251L30.4052 10.4851L33.1577 8.10007C33.6602 7.66507 33.3902 6.84007 32.7302 6.78757L29.1077 6.48007L27.6902 3.13507C27.4352 2.52757 26.5652 2.52757 26.3102 3.13507L24.8927 6.47257L21.2702 6.78007C20.6102 6.83257 20.3402 7.65757 20.8427 8.09257L23.5952 10.4776L22.7702 14.0176C22.6202 14.6626 23.3177 15.1726 23.8877 14.8276L27.0002 12.9526Z" fill="#1BBB60"/>
<rect width="18" height="18" transform="translate(36)" fill="white"/>
<path d="M45.0002 12.9526L48.1127 14.8351C48.6827 15.1801 49.3802 14.6701 49.2302 14.0251L48.4052 10.4851L51.1577 8.10007C51.6602 7.66507 51.3902 6.84007 50.7302 6.78757L47.1077 6.48007L45.6902 3.13507C45.4352 2.52757 44.5652 2.52757 44.3102 3.13507L42.8927 6.47257L39.2702 6.78007C38.6102 6.83257 38.3402 7.65757 38.8427 8.09257L41.5952 10.4776L40.7702 14.0176C40.6202 14.6626 41.3177 15.1726 41.8877 14.8276L45.0002 12.9526Z" fill="#1BBB60"/>
<rect width="18" height="18" transform="translate(54)" fill="white"/>
<path d="M63.0002 12.9526L66.1127 14.8351C66.6827 15.1801 67.3802 14.6701 67.2302 14.0251L66.4052 10.4851L69.1577 8.10007C69.6602 7.66507 69.3902 6.84007 68.7302 6.78757L65.1077 6.48007L63.6902 3.13507C63.4352 2.52757 62.5652 2.52757 62.3102 3.13507L60.8927 6.47257L57.2702 6.78007C56.6102 6.83257 56.3402 7.65757 56.8427 8.09257L59.5952 10.4776L58.7702 14.0176C58.6202 14.6626 59.3177 15.1726 59.8877 14.8276L63.0002 12.9526Z" fill="#1BBB60"/>
<path d="M84.309 7.0163L80.633 6.70834L79.1976 3.44544C78.9394 2.85152 78.0584 2.85152 77.8002 3.44544L76.3647 6.71567L72.6964 7.0163C72.0281 7.06763 71.7547 7.87418 72.2635 8.29946L75.0508 10.6312L74.2154 14.092C74.0635 14.7226 74.7698 15.2212 75.347 14.8839L78.4989 13.0508L81.6508 14.8913C82.228 15.2285 82.9343 14.7299 82.7824 14.0994L81.947 10.6312L84.7343 8.29946C85.2431 7.87418 84.9773 7.06763 84.309 7.0163ZM80.018 12.4862L80.3977 7.7202L78.4989 4.86059L79.7976 7.82286L83.1242 8.10149L80.6027 10.2132L81.3622 13.3515L80.018 12.4862Z" fill="#1BBB60"/>
</svg>
